<svg width="273" height="131" viewBox="0 0 273 131" fill="none" xmlns="http://www.w3.org/2000/svg">
<path d="M108.732 4.19617e-05L80.069 31.0498L76.1102 27.4894L70.4094 33.6395L80.0222 42.6774L114.527 5.46156L108.732 4.19617e-05Z" fill="#00CA72"/>
<path d="M195.787 64.7432C195.82 61.5773 195.429 58.4875 194.088 55.5796C191.668 50.3347 186.841 49.2558 182.951 50.6101C180.362 51.5112 178.734 53.4913 177.604 55.8898C175.924 59.4608 175.577 63.2471 175.922 67.1297C176.166 69.8678 176.851 72.4735 178.325 74.8186C179.449 76.6061 180.947 77.9885 182.987 78.6784C187.498 80.2039 191.948 78.2238 194.045 73.7584C195.386 70.9026 195.798 67.8624 195.787 64.7432ZM175.162 80.8242C175.162 81.8925 175.182 83.6132 175.155 84.6801C175.125 85.8927 174.826 86.2149 173.679 86.2309C171.993 86.2563 170.306 86.2563 168.618 86.2296C167.556 86.2122 167.308 85.9569 167.215 84.9087C167.181 84.537 167.199 84.1613 167.199 83.7856C167.197 65.3341 167.197 46.8813 167.199 28.4285C167.199 26.0073 167.231 25.9778 169.604 25.9765C171.102 25.9765 172.601 25.9618 174.101 25.9819C175.577 26.0006 175.791 26.2185 175.791 27.7266C175.799 33.7684 175.795 39.8101 175.795 45.8505V47.3907C176.855 46.4896 177.674 45.666 178.614 45.0136C183.733 41.4639 189.797 41.6912 194.545 44.1352C198.477 46.2195 201.489 50.0994 202.965 54.5943C205.338 61.8273 205.301 69.079 202.314 76.1475C200.167 81.2267 196.584 84.9688 191.087 86.3326C185.24 87.7832 180.037 86.5705 175.937 81.8684C175.51 81.3791 175.295 80.7587 175.162 80.8242Z" fill="white"/>
<path d="M131.03 64.8392C131.136 67.9543 131.316 71.0828 132.668 74.0028C133.581 75.9761 134.872 77.6326 136.975 78.3987C139.667 79.6127 143.827 79.4081 146.63 76.7181C147.626 75.7636 148.531 74.6124 149.147 73.3864C151.325 69.0453 151.683 64.4341 150.741 59.7106C150.257 57.284 149.201 55.1261 147.563 53.237C143.874 48.9774 135.764 48.5924 132.795 55.3548C131.462 58.3937 131.157 61.5716 131.03 64.8392ZM151.579 47.5322C151.579 46.6671 151.57 45.8021 151.582 44.9371C151.605 43.3568 151.806 43.1442 153.364 43.1295C155.051 43.1148 156.739 43.1041 158.424 43.1362C159.64 43.1589 159.883 43.4237 159.899 44.659C159.921 46.2513 159.906 83.9979 159.906 83.9979C159.906 86.1398 159.808 86.236 157.711 86.2387C156.257 86.24 154.805 86.2574 153.353 86.232C152.261 86.2106 152.024 86.0087 151.923 84.9351C151.814 83.7907 151.788 82.3829 151.725 81.2344C151.725 81.2344 151.23 81.7144 150.891 82.0674C148.365 84.9606 145.156 86.4967 141.345 86.8176C133.231 87.5021 127.396 82.9471 124.55 76.043C122.61 71.3409 122.234 66.4288 122.679 61.4246C123.012 57.6543 123.953 54.0499 125.855 50.7435C128.279 46.5294 131.702 43.548 136.574 42.6161C141.875 41.6014 146.619 42.7298 150.459 46.754C150.736 47.0442 151.026 47.3236 151.308 47.607C151.308 47.607 151.531 47.8731 151.57 47.8504C151.587 47.841 151.579 47.5322 151.579 47.5322Z" fill="white"/>
<path d="M64.7003 39.8015L70.9653 45.6708L57.2333 60.4175C57.8483 61.4817 66.8916 76.9932 71.0068 83.8599C71.9961 85.5124 71.6177 86.3828 69.5815 86.2624C67.7606 86.1528 65.9249 86.1795 64.1013 86.2611C63.0184 86.3092 62.3994 85.9215 61.8713 84.983C58.6786 79.3102 51.3212 66.5595 51.3212 66.5595C51.3212 66.5595 46.4266 72.0518 45.2808 73.2872C44.738 73.8728 44.492 74.4878 44.5027 75.298C44.5428 78.2032 44.5254 84.7637 44.488 85.134C44.4145 85.848 44.0134 86.2317 43.2821 86.233C41.2191 86.2344 39.1575 86.2357 37.0959 86.2317C36.3646 86.2303 35.9608 85.8533 35.9087 85.1273L35.8873 28.2073C35.8873 26.0535 35.9595 25.9799 38.0799 25.9773C39.7204 25.9746 41.3608 25.9545 43 25.9866C44.1925 26.0107 44.4586 26.3088 44.5147 27.5121C44.5321 27.8864 44.5188 60.9216 44.5188 61.4189L64.7003 39.8015Z" fill="white"/>
<path d="M234.661 60.3597H253.521C253.328 57.5494 252.726 54.9703 250.903 52.874C248.393 49.9915 245.096 49.6238 241.634 50.4501C237.747 51.3793 234.609 55.945 234.661 60.3597ZM234.406 67.9857C234.938 71.7199 235.956 75.0503 239.041 77.3605C240.795 78.6734 242.824 79.1842 244.98 79.1601C247.911 79.1267 250.619 78.3552 252.997 76.5797C253.184 76.4394 253.387 76.323 253.678 76.1345C255.735 77.6159 257.81 79.112 259.977 80.6722C257.723 82.9009 255.305 84.6082 252.438 85.6123C248.075 87.1405 243.618 87.3851 239.179 86.119C233.017 84.3609 229.072 80.1428 227.124 74.1826C224.808 67.094 224.911 59.9559 227.915 53.0571C230.414 47.3175 234.764 43.6168 241.035 42.566C246.186 41.7023 251.041 42.5379 255.184 45.9712C258.699 48.8831 260.513 52.771 261.33 57.179C261.906 60.2861 261.859 63.42 261.659 66.5552C261.585 67.7023 261.326 67.9376 260.212 67.983C259.885 67.9951 235.024 67.9857 234.406 67.9857Z" fill="white"/>
<path d="M29.0792 48.5976C29.3894 48.0855 28.7463 47.4504 28.6086 47.3421C23.1778 43.0171 17.0024 41.3686 10.137 42.755C6.09271 43.5719 2.80377 46.1629 1.18203 49.7099C-0.525273 53.6954 -0.506558 57.6408 2.05373 61.3228C3.37332 63.2186 5.25978 64.5075 7.34812 65.3658C10.7494 66.6814 18.6268 69.4048 20.5894 70.3687C21.4251 70.7337 22.0815 71.3608 22.4144 72.2325C23.2513 74.4197 23.0134 77.8932 19.318 78.9574C17.2377 79.5564 15.1413 79.4467 13.0543 79.0871C9.83622 78.5323 7.93104 77.7608 5.45364 75.6685C5.15015 75.4131 4.57659 75.3877 4.2985 75.6658C3.98432 75.98 0.14321 80.15 0.14321 80.15C-0.178999 80.8198 0.240809 81.2022 1.04834 81.9161C1.67136 82.4669 3.89741 83.9938 4.88142 84.4564C9.87232 86.7907 15.1132 87.4391 20.5025 86.4859C26.2341 85.4711 30.13 82.0819 30.8801 76.0923C31.3333 72.4825 30.8574 69.0625 28.277 66.2455C26.7649 64.597 24.8878 63.4272 22.8182 62.6317C20.2004 61.625 12.8163 59.3147 10.7093 58.1836C9.1918 57.5285 8.42973 56.372 8.43374 54.6567C8.43909 52.8398 9.12629 51.4547 10.736 50.6351C11.4285 50.2808 12.2294 50.0549 13.0048 49.9599C16.7056 49.512 20.0493 50.4787 23.0562 52.6553C23.2567 52.7996 23.4546 52.9467 23.6551 53.0991C24.091 53.428 24.706 53.3759 25.0776 52.9761C25.0776 52.9761 28.9 48.8917 29.0792 48.5976Z" fill="white"/>
<path d="M210.648 56.0181C210.648 46.7489 210.648 37.4797 210.648 28.2105C210.65 26.1008 210.77 25.9818 212.866 25.9778C214.505 25.9738 216.145 25.9551 217.784 25.9872C218.937 26.0099 219.175 26.2733 219.229 27.4003C219.242 27.6811 219.233 65.413 219.233 83.9982C219.233 86.1534 219.151 86.2363 217.044 86.2389C215.407 86.2389 213.766 86.259 212.127 86.2296C211.02 86.2095 210.724 85.898 210.655 84.8084C210.631 84.4354 210.648 65.2405 210.648 56.0181Z" fill="white"/>
<path d="M116.176 86.2014H107.585V24.3921H116.176V86.2014Z" fill="white"/>
<path d="M100.242 86.2014H91.6573V41.5949H100.242V86.2014Z" fill="white"/>
<path d="M84.304 86.2014H75.73V54.1249H84.304V86.2014Z" fill="white"/>
<path d="M1.18137 121.234L6.93835 120.865C7.04931 123.743 9.26333 125.551 12.0683 125.551C14.4307 125.551 16.2009 124.333 16.2009 122.414C16.2009 120.937 15.0938 120.052 13.1753 119.647L10.2607 119.056C4.61336 117.949 2.25094 115.033 2.25094 111.159C2.25094 105.733 7.04931 102.966 11.8838 102.966C16.9402 102.966 21.9592 105.918 22.2907 111.637L16.3867 111.934C16.1648 109.239 14.2088 107.614 11.8103 107.614C9.70587 107.614 8.04535 108.834 8.04535 110.679C8.04535 112.155 9.07883 113.004 10.8142 113.373L13.7288 113.963C19.4122 115.07 22.0701 117.985 22.0701 122.008C22.0701 127.507 17.0498 130.201 12.0309 130.201C6.68031 130.201 1.36587 127.138 1.18137 121.234Z" fill="white"/>
<path d="M33.8123 108.722H26.3948V103.667H47.2462V108.722H39.8287V129.5H33.8123V108.722Z" fill="white"/>
<path d="M51.759 119.167V103.666H57.7753V118.981C57.7753 122.488 59.8048 124.665 63.0884 124.665C66.3734 124.665 68.4403 122.488 68.4403 118.981V103.666H74.4192V119.167C74.4192 125.625 69.8428 130.017 63.0884 130.017C56.3728 130.017 51.759 125.625 51.759 119.167Z" fill="white"/>
<path d="M90.7418 124.776C95.3544 124.776 98.4548 121.491 98.4548 116.583C98.4548 111.675 95.3544 108.39 90.7418 108.39H86.6079V124.776H90.7418ZM80.6664 103.667H90.9263C99.0444 103.667 104.47 108.833 104.47 116.583C104.47 124.333 99.0444 129.5 90.9263 129.5H80.6664V103.667Z" fill="white"/>
<path d="M110.123 103.666H116.065V129.499H110.123V103.666Z" fill="white"/>
<path d="M135.244 124.887C139.6 124.887 142.81 121.381 142.81 116.583C142.81 111.749 139.6 108.206 135.244 108.206C130.89 108.206 127.68 111.749 127.68 116.583C127.68 121.381 130.89 124.887 135.244 124.887ZM121.663 116.583C121.663 108.686 127.42 102.929 135.244 102.929C143.07 102.929 148.825 108.686 148.825 116.583C148.825 124.481 143.07 130.238 135.244 130.238C127.42 130.238 121.663 124.481 121.663 116.583Z" fill="white"/>
<path d="M268.246 47.0085C268.691 47.0085 268.996 46.7277 268.996 46.2357C268.996 45.8373 268.691 45.5565 268.246 45.5565H267.192V47.0085H268.246ZM266.068 44.7142H268.457C269.441 44.7142 270.143 45.2985 270.143 46.1421C270.143 46.7504 269.722 47.2197 269.112 47.336C269.557 47.4296 269.886 47.7812 269.909 48.32L269.956 48.9992C269.978 49.2559 270.003 49.4444 270.049 49.514H268.925C268.855 49.3736 268.855 49.2105 268.833 49.046L268.785 48.3896C268.762 47.9925 268.527 47.7572 268.176 47.7572H267.192V49.514H266.068V44.7142ZM267.871 51.2467C270.143 51.2467 271.853 49.4912 271.853 47.1957C271.853 44.9001 270.143 43.1687 267.871 43.1687C265.6 43.1687 263.891 44.9001 263.891 47.1957C263.891 49.4912 265.6 51.2467 267.871 51.2467ZM262.743 47.1957C262.743 44.3613 265.014 42.1379 267.871 42.1379C270.729 42.1379 273 44.3613 273 47.1957C273 50.0528 270.729 52.2775 267.871 52.2775C265.014 52.2775 262.743 50.0528 262.743 47.1957Z" fill="white"/>
<path d="M155.27 103.616H156.891L158.105 107.355L159.339 103.616H160.978V108.415H159.898L159.975 104.657L158.645 108.415H157.585L156.254 104.657L156.332 108.415H155.27V103.616ZM150.162 103.616H154.462V104.58H152.861V108.415H151.762V104.58H150.162V103.616Z" fill="white"/>
</svg>
