<svg width="64" height="32" viewBox="0 0 64 32" fill="none" xmlns="http://www.w3.org/2000/svg">
<path d="M26.2628 1.71661e-05L19.3636 7.59013L18.4107 6.7198L17.0386 8.22318L19.3523 10.4325L27.6575 1.33508L26.2628 1.71661e-05Z" fill="#00CA72"/>
<path d="M47.2167 15.8265C47.2247 15.0525 47.1305 14.2973 46.8077 13.5864C46.2252 12.3043 45.0635 12.0406 44.1271 12.3716C43.504 12.5919 43.1121 13.0759 42.8402 13.6622C42.4357 14.5352 42.3523 15.4607 42.4353 16.4098C42.4939 17.0792 42.659 17.7161 43.0136 18.2894C43.2843 18.7263 43.6447 19.0643 44.1357 19.2329C45.2215 19.6058 46.2928 19.1218 46.7974 18.0302C47.1202 17.3321 47.2193 16.5889 47.2167 15.8265ZM42.2522 19.7575C42.2522 20.0186 42.2571 20.4392 42.2506 20.7C42.2435 20.9965 42.1715 21.0752 41.8953 21.0791C41.4895 21.0853 41.0834 21.0853 40.6773 21.0788C40.4215 21.0746 40.3619 21.0121 40.3394 20.7559C40.3314 20.6651 40.3356 20.5732 40.3356 20.4814C40.3352 15.9709 40.3352 11.4601 40.3356 6.94933C40.3356 6.35745 40.3433 6.35026 40.9145 6.34993C41.2752 6.34993 41.636 6.34634 41.997 6.35124C42.3523 6.35582 42.4038 6.40909 42.4038 6.77774C42.4057 8.25465 42.4048 9.73156 42.4048 11.2081V11.5846C42.66 11.3644 42.8569 11.163 43.0831 11.0036C44.3153 10.1358 45.775 10.1914 46.9177 10.7888C47.8642 11.2983 48.5892 12.2468 48.9445 13.3456C49.5157 15.1137 49.5067 16.8863 48.7877 18.6142C48.2709 19.8558 47.4085 20.7706 46.0856 21.104C44.678 21.4586 43.4258 21.1622 42.4389 20.0127C42.3362 19.8931 42.2844 19.7415 42.2522 19.7575Z" fill="#0A3E28"/>
<path d="M31.6296 15.8499C31.6551 16.6114 31.6985 17.3762 32.0239 18.09C32.2436 18.5723 32.5545 18.9773 33.0607 19.1645C33.7085 19.4613 34.71 19.4113 35.3845 18.7537C35.6242 18.5204 35.8421 18.239 35.9904 17.9393C36.5146 16.8781 36.6009 15.7509 36.374 14.5962C36.2575 14.003 36.0033 13.4756 35.6091 13.0138C34.7212 11.9725 32.7692 11.8784 32.0544 13.5314C31.7336 14.2743 31.6602 15.0512 31.6296 15.8499ZM36.5758 11.6192C36.5758 11.4078 36.5735 11.1963 36.5764 10.9848C36.5819 10.5985 36.6305 10.5466 37.0054 10.543C37.4115 10.5394 37.8176 10.5368 38.2234 10.5446C38.5159 10.5502 38.5745 10.6149 38.5784 10.9169C38.5835 11.3061 38.58 20.5333 38.58 20.5333C38.58 21.0568 38.5565 21.0804 38.0516 21.081C37.7018 21.0814 37.3523 21.0856 37.0028 21.0794C36.7399 21.0742 36.6829 21.0248 36.6585 20.7624C36.6324 20.4826 36.626 20.1385 36.6108 19.8577C36.6108 19.8577 36.4918 19.9751 36.41 20.0613C35.8022 20.7686 35.0298 21.1441 34.1124 21.2225C32.1593 21.3899 30.755 20.2764 30.0699 18.5887C29.6029 17.4392 29.5125 16.2385 29.6197 15.0152C29.6998 14.0936 29.9263 13.2125 30.3839 12.4042C30.9674 11.3741 31.7915 10.6453 32.9642 10.4175C34.2401 10.1694 35.3819 10.4453 36.3061 11.429C36.3727 11.4999 36.4425 11.5682 36.5104 11.6375C36.5104 11.6375 36.5642 11.7025 36.5735 11.697C36.5777 11.6947 36.5758 11.6192 36.5758 11.6192Z" fill="#0A3E28"/>
<path d="M15.6647 9.7294L17.1727 11.1642L13.8674 14.769C14.0154 15.0291 16.1921 18.8209 17.1826 20.4995C17.4208 20.9034 17.3297 21.1162 16.8396 21.0868C16.4013 21.06 15.9595 21.0665 15.5205 21.0865C15.2599 21.0982 15.1109 21.0034 14.9838 20.774C14.2153 19.3873 12.4444 16.2704 12.4444 16.2704C12.4444 16.2704 11.2663 17.613 10.9905 17.915C10.8598 18.0581 10.8006 18.2085 10.8032 18.4065C10.8129 19.1167 10.8087 20.7204 10.7997 20.8109C10.782 20.9855 10.6854 21.0793 10.5094 21.0796C10.0128 21.0799 9.51663 21.0803 9.0204 21.0793C8.84438 21.0789 8.74719 20.9868 8.73464 20.8093L8.72949 6.89521C8.72949 6.3687 8.74687 6.35072 9.25725 6.35007C9.65211 6.34941 10.047 6.34451 10.4415 6.35235C10.7285 6.35824 10.7926 6.43112 10.8061 6.72526C10.8103 6.81677 10.8071 14.8922 10.8071 15.0138L15.6647 9.7294Z" fill="#0A3E28"/>
<path d="M56.5737 14.7549H61.1131C61.0668 14.0679 60.922 13.4375 60.483 12.925C59.879 12.2204 59.0854 12.1305 58.252 12.3325C57.3165 12.5596 56.5612 13.6757 56.5737 14.7549ZM56.5123 16.6191C56.6404 17.5319 56.8853 18.346 57.628 18.9108C58.0502 19.2317 58.5384 19.3566 59.0574 19.3507C59.7628 19.3425 60.4148 19.1539 60.987 18.7199C61.032 18.6856 61.0809 18.6572 61.1511 18.6111C61.646 18.9732 62.1455 19.3389 62.6671 19.7203C62.1245 20.2651 61.5427 20.6825 60.8525 20.9279C59.8024 21.3015 58.7295 21.3613 57.6611 21.0518C56.1779 20.622 55.2283 19.5909 54.7594 18.1339C54.202 16.4011 54.2268 14.6562 54.9499 12.9698C55.5514 11.5668 56.5985 10.6621 58.1078 10.4052C59.3477 10.1941 60.5162 10.3984 61.5134 11.2377C62.3595 11.9495 62.7962 12.8999 62.9928 13.9774C63.1315 14.7369 63.1202 15.503 63.0719 16.2694C63.0542 16.5498 62.9918 16.6073 62.7237 16.6184C62.6449 16.6214 56.661 16.6191 56.5123 16.6191Z" fill="#0A3E28"/>
<path d="M7.09059 11.8796C7.16525 11.7544 7.01046 11.5992 6.97731 11.5727C5.67014 10.5154 4.18373 10.1125 2.53127 10.4514C1.55781 10.6511 0.766169 11.2844 0.375821 12.1515C-0.0351232 13.1258 -0.0306184 14.0902 0.585637 14.9903C0.903257 15.4537 1.35732 15.7688 1.85998 15.9786C2.67865 16.3002 4.57472 16.9659 5.04713 17.2016C5.24826 17.2908 5.40626 17.4441 5.48639 17.6571C5.68784 18.1918 5.63056 19.0409 4.74109 19.3011C4.24037 19.4475 3.73578 19.4207 3.23344 19.3328C2.45886 19.1971 2.00029 19.0086 1.40399 18.4971C1.33094 18.4347 1.19288 18.4284 1.12595 18.4964C1.05032 18.5732 0.125779 19.5926 0.125779 19.5926C0.048224 19.7563 0.149271 19.8498 0.34364 20.0243C0.493601 20.159 1.0294 20.5322 1.26625 20.6453C2.46755 21.2159 3.72902 21.3744 5.02621 21.1414C6.40579 20.8933 7.34352 20.0648 7.52406 18.6007C7.63315 17.7183 7.51859 16.8823 6.8975 16.1936C6.53354 15.7907 6.08173 15.5047 5.58358 15.3102C4.95349 15.0641 3.17616 14.4994 2.669 14.2229C2.30375 14.0628 2.12032 13.7801 2.12129 13.3607C2.12257 12.9166 2.28798 12.578 2.67543 12.3777C2.84213 12.2911 3.03489 12.2358 3.22154 12.2126C4.11229 12.1031 4.91712 12.3394 5.64086 12.8715C5.68913 12.9068 5.73676 12.9427 5.78503 12.98C5.88994 13.0604 6.03797 13.0477 6.12743 12.9499C6.12743 12.9499 7.04746 11.9515 7.09059 11.8796Z" fill="#0A3E28"/>
<path d="M50.7939 13.6937C50.7939 11.4278 50.7939 9.16194 50.7939 6.89609C50.7943 6.38036 50.8232 6.35128 51.3278 6.3503C51.7223 6.34932 52.1169 6.34474 52.5114 6.35258C52.7891 6.35814 52.8464 6.42252 52.8593 6.69803C52.8625 6.76667 52.8602 15.9902 52.8602 20.5334C52.8602 21.0602 52.8406 21.0805 52.3335 21.0811C51.9392 21.0811 51.5444 21.086 51.1499 21.0788C50.8834 21.0739 50.8123 20.9978 50.7956 20.7314C50.7898 20.6402 50.7939 15.9481 50.7939 13.6937Z" fill="#0A3E28"/>
<path d="M28.0547 21.0719H25.9868V5.96261H28.0547V21.0719Z" fill="#0A3E28"/>
<path d="M24.2191 21.0719H22.1528V10.1678H24.2191V21.0719Z" fill="#0A3E28"/>
<path d="M20.3831 21.0719H18.3193V13.2308H20.3831V21.0719Z" fill="#0A3E28"/>
<path d="M0.375488 29.6356L1.76118 29.5454C1.78789 30.2491 2.32079 30.691 2.99594 30.691C3.56457 30.691 3.99064 30.3932 3.99064 29.9242C3.99064 29.5631 3.72418 29.3467 3.26239 29.2477L2.56086 29.1033C1.20156 28.8326 0.632932 28.1198 0.632932 27.1727C0.632932 25.8465 1.78789 25.17 2.95153 25.17C4.16859 25.17 5.37665 25.8916 5.45645 27.2897L4.03537 27.3623C3.98195 26.7034 3.51115 26.3063 2.93383 26.3063C2.42731 26.3063 2.02763 26.6044 2.02763 27.0554C2.02763 27.4162 2.27639 27.6237 2.69409 27.7139L3.39562 27.8584C4.76361 28.129 5.40336 28.8415 5.40336 29.8249C5.40336 31.1691 4.19498 31.8276 2.98693 31.8276C1.69907 31.8276 0.419897 31.0789 0.375488 29.6356Z" fill="#136945"/>
<path d="M8.22971 26.5771H6.44434V25.3414H11.4632V26.5771H9.67782V31.6562H8.22971V26.5771Z" fill="#136945"/>
<path d="M12.5493 29.1303V25.3411H13.9974V29.0849C13.9974 29.9421 14.4859 30.4742 15.2763 30.4742C16.067 30.4742 16.5645 29.9421 16.5645 29.0849V25.3411H18.0036V29.1303C18.0036 30.7089 16.902 31.7825 15.2763 31.7825C13.6599 31.7825 12.5493 30.7089 12.5493 29.1303Z" fill="#136945"/>
<path d="M21.9324 30.5015C23.0427 30.5015 23.7889 29.6985 23.7889 28.4987C23.7889 27.2989 23.0427 26.4959 21.9324 26.4959H20.9374V30.5015H21.9324ZM19.5073 25.3413H21.9768C23.9308 25.3413 25.2367 26.6041 25.2367 28.4987C25.2367 30.3933 23.9308 31.6561 21.9768 31.6561H19.5073V25.3413Z" fill="#136945"/>
<path d="M26.5977 25.3412H28.0278V31.656H26.5977V25.3412Z" fill="#136945"/>
<path d="M32.6444 30.5286C33.6928 30.5286 34.4655 29.6717 34.4655 28.4987C34.4655 27.3169 33.6928 26.4509 32.6444 26.4509C31.5963 26.4509 30.8236 27.3169 30.8236 28.4987C30.8236 29.6717 31.5963 30.5286 32.6444 30.5286ZM29.3755 28.4987C29.3755 26.5682 30.7612 25.1609 32.6444 25.1609C34.5279 25.1609 35.9133 26.5682 35.9133 28.4987C35.9133 30.4293 34.5279 31.8365 32.6444 31.8365C30.7612 31.8365 29.3755 30.4293 29.3755 28.4987Z" fill="#136945"/>
</svg>